<svg xmlns="http://www.w3.org/2000/svg" width="600" height="600">
  <!-- Background -->
  <rect width="600" height="600" fill="#BFD9E8"/>

  <!-- Doodles in #9DC4D8 (slightly darker than bg) -->
  <g stroke="#9DC4D8" fill="none" stroke-width="1.5" stroke-linecap="round" stroke-linejoin="round">

    <!-- Chat bubble 1 -->
    <rect x="20" y="30" width="50" height="34" rx="8"/>
    <polyline points="30,64 24,78 44,64"/>

    <!-- Heart -->
    <path d="M100 50 C100 44 107 38 114 44 C121 38 128 44 128 50 C128 60 114 70 114 70 C114 70 100 60 100 50Z"/>

    <!-- Star -->
    <polygon points="180,20 184,35 199,35 187,44 191,59 180,50 169,59 173,44 161,35 176,35"/>

    <!-- Music note -->
    <path d="M240 25 L255 20 L255 40 M240 40 C240 43 237 45 234 44 C231 43 230 40 230 38 C230 35 233 33 236 34"/>

    <!-- Lightning -->
    <polyline points="300,15 292,33 305,33 297,52"/>

    <!-- Camera -->
    <rect x="340" y="22" width="46" height="34" rx="5"/>
    <circle cx="363" cy="39" r="10"/>
    <rect x="350" y="17" width="14" height="8" rx="2"/>

    <!-- Phone -->
    <rect x="420" y="15" width="28" height="46" rx="6"/>
    <line x1="420" y1="52" x2="448" y2="52"/>
    <line x1="420" y1="24" x2="448" y2="24"/>

    <!-- Envelope -->
    <rect x="490" y="20" width="50" height="36" rx="4"/>
    <polyline points="490,20 515,40 540,20"/>

    <!-- Flower -->
    <circle cx="55" cy="130" r="8"/>
    <circle cx="40" cy="118" r="5"/>
    <circle cx="70" cy="118" r="5"/>
    <circle cx="40" cy="142" r="5"/>
    <circle cx="70" cy="142" r="5"/>
    <circle cx="55" cy="110" r="5"/>
    <circle cx="55" cy="150" r="5"/>

    <!-- Peace -->
    <circle cx="140" cy="130" r="20"/>
    <line x1="140" y1="110" x2="140" y2="150"/>
    <line x1="140" y1="130" x2="122" y2="148"/>
    <line x1="140" y1="130" x2="158" y2="148"/>

    <!-- Smiley -->
    <circle cx="210" cy="130" r="22"/>
    <circle cx="202" cy="124" r="3" fill="#9DC4D8"/>
    <circle cx="218" cy="124" r="3" fill="#9DC4D8"/>
    <path d="M200 136 Q210 146 220 136"/>

    <!-- Thumbs up -->
    <path d="M280 150 L280 130 C280 126 284 122 288 122 L298 122 C298 112 304 100 310 100 C314 100 314 108 312 118 L322 118 C326 118 328 120 328 124 L326 148 C326 152 322 154 318 154 Z"/>
    <line x1="280" y1="130" x2="270" y2="130"/>
    <rect x="264" y="130" width="16" height="24" rx="3"/>

    <!-- Rocket -->
    <path d="M380 150 L370 130 C370 110 390 95 390 95 C390 95 410 110 410 130 L400 150 Z"/>
    <path d="M370 135 L360 145 L365 155 L375 145"/>
    <path d="M410 135 L420 145 L415 155 L405 145"/>
    <circle cx="390" cy="120" r="6"/>

    <!-- Coffee cup -->
    <rect x="450" y="110" width="36" height="44" rx="4"/>
    <path d="M486 122 C496 122 496 138 486 138"/>
    <line x1="450" y1="154" x2="486" y2="154"/>
    <path d="M460 110 C460 100 468 100 468 110"/>

    <!-- Headphones -->
    <path d="M520 115 C520 100 540 90 565 100 C590 90 610 100 610 115"/>
    <rect x="512" y="115" width="16" height="22" rx="8"/>
    <rect x="602" y="115" width="16" height="22" rx="8"/>

    <!-- Stars scattered -->
    <polygon points="150,220 153,230 164,230 155,236 158,247 150,241 142,247 145,236 136,230 147,230"/>
    <polygon points="350,210 352,218 360,218 354,223 356,231 350,226 344,231 346,223 340,218 348,218"/>
    <polygon points="500,230 502,238 510,238 504,243 506,251 500,246 494,251 496,243 490,238 498,238"/>

    <!-- Bicycle -->
    <circle cx="90" cy="280" r="22"/>
    <circle cx="150" cy="280" r="22"/>
    <line x1="90" y1="280" x2="120" y2="255"/>
    <line x1="120" y1="255" x2="150" y2="280"/>
    <line x1="120" y1="255" x2="120" y2="265"/>
    <line x1="108" y1="266" x2="132" y2="266"/>
    <line x1="90" y1="280" x2="120" y2="280"/>

    <!-- Chat bubble 2 -->
    <rect x="200" y="250" width="70" height="44" rx="10"/>
    <polyline points="215,294 208,310 230,294"/>
    <line x1="215" y1="266" x2="255" y2="266"/>
    <line x1="215" y1="278" x2="245" y2="278"/>

    <!-- Pizza slice -->
    <path d="M340 310 L370 250 L400 310 Z"/>
    <circle cx="360" cy="280" r="4" fill="#9DC4D8"/>
    <circle cx="375" cy="295" r="4" fill="#9DC4D8"/>
    <circle cx="350" cy="296" r="4" fill="#9DC4D8"/>
    <line x1="340" y1="310" x2="400" y2="310"/>

    <!-- Speech bubble small -->
    <ellipse cx="460" cy="270" rx="30" ry="20"/>
    <path d="M445 288 L438 300 L458 288"/>
    <text x="447" y="275" font-size="14" fill="#9DC4D8">...</text>

    <!-- Heart small -->
    <path d="M530 255 C530 250 535 245 540 250 C545 245 550 250 550 255 C550 263 540 272 540 272 C540 272 530 263 530 255Z"/>

    <!-- Musical notes scattered -->
    <path d="M30 350 L30 375 M30 375 C30 378 27 380 24 379 C21 378 20 375 20 373"/>
    <path d="M30 350 L50 344 L50 365 M50 365 C50 368 47 370 44 369 C41 368 40 365 40 363"/>

    <!-- Sparkle -->
    <line x1="100" y1="360" x2="100" y2="390"/>
    <line x1="85" y1="375" x2="115" y2="375"/>
    <line x1="90" y1="365" x2="110" y2="385"/>
    <line x1="110" y1="365" x2="90" y2="385"/>

    <!-- Sun/star burst -->
    <circle cx="180" cy="370" r="12"/>
    <line x1="180" y1="350" x2="180" y2="345"/>
    <line x1="180" y1="390" x2="180" y2="395"/>
    <line x1="160" y1="370" x2="155" y2="370"/>
    <line x1="200" y1="370" x2="205" y2="370"/>
    <line x1="166" y1="356" x2="162" y2="352"/>
    <line x1="194" y1="384" x2="198" y2="388"/>
    <line x1="194" y1="356" x2="198" y2="352"/>
    <line x1="166" y1="384" x2="162" y2="388"/>

    <!-- Phone 2 small -->
    <rect x="250" y="350" width="22" height="38" rx="5"/>
    <line x1="250" y1="362" x2="272" y2="362"/>
    <line x1="250" y1="376" x2="272" y2="376"/>

    <!-- Location pin -->
    <circle cx="330" cy="360" r="12"/>
    <path d="M318 367 C318 380 330 395 330 395 C330 395 342 380 342 367"/>
    <circle cx="330" cy="360" r="5" fill="#9DC4D8"/>

    <!-- Envelope small -->
    <rect x="380" y="352" width="40" height="28" rx="3"/>
    <polyline points="380,352 400,368 420,352"/>

    <!-- Star 3 -->
    <polygon points="460,360 462,367 470,367 464,371 466,378 460,374 454,378 456,371 450,367 458,367"/>

    <!-- Wifi -->
    <path d="M510 380 C510 370 520 358 535 355 C550 358 560 370 560 380"/>
    <path d="M518 380 C518 374 526 366 535 364 C544 366 552 374 552 380"/>
    <path d="M526 380 C526 376 530 372 535 371 C540 372 544 376 544 380"/>
    <circle cx="535" cy="385" r="4" fill="#9DC4D8"/>

    <!-- Gem -->
    <polygon points="580,350 600,350 610,365 590,385 570,365"/>
    <line x1="580" y1="350" x2="570" y2="365"/>
    <line x1="600" y1="350" x2="610" y2="365"/>
    <line x1="580" y1="350" x2="590" y2="365"/>
    <line x1="600" y1="350" x2="590" y2="365"/>

    <!-- More scattered elements -->
    <!-- Small hearts -->
    <path d="M40 450 C40 447 43 444 46 447 C49 444 52 447 52 450 C52 455 46 460 46 460 C46 460 40 455 40 450Z"/>
    <path d="M200 490 C200 487 203 484 206 487 C209 484 212 487 212 490 C212 495 206 500 206 500 C206 500 200 495 200 490Z"/>
    <path d="M450 470 C450 467 453 464 456 467 C459 464 462 467 462 470 C462 475 456 480 456 480 C456 480 450 475 450 470Z"/>

    <!-- Small stars scattered -->
    <polygon points="100,470 102,477 109,477 104,481 106,488 100,484 94,488 96,481 91,477 98,477"/>
    <polygon points="300,460 302,467 309,467 304,471 306,478 300,474 294,478 296,471 291,467 298,467"/>
    <polygon points="550,460 552,467 559,467 554,471 556,478 550,474 544,478 546,471 541,467 548,467"/>

    <!-- Dots -->
    <circle cx="155" cy="455" r="3" fill="#9DC4D8"/>
    <circle cx="165" cy="465" r="2" fill="#9DC4D8"/>
    <circle cx="145" cy="470" r="2.5" fill="#9DC4D8"/>
    <circle cx="400" cy="445" r="3" fill="#9DC4D8"/>
    <circle cx="415" cy="458" r="2" fill="#9DC4D8"/>

    <!-- Camera 2 small -->
    <rect x="340" y="445" width="36" height="26" rx="4"/>
    <circle cx="358" cy="458" r="8"/>
    <rect x="347" y="440" width="11" height="6" rx="2"/>

    <!-- Notepad  -->
    <rect x="480" y="445" width="36" height="46" rx="4"/>
    <line x1="487" y1="460" x2="509" y2="460"/>
    <line x1="487" y1="470" x2="509" y2="470"/>
    <line x1="487" y1="480" x2="502" y2="480"/>
    <line x1="494" y1="445" x2="494" y2="452"/>
    <line x1="502" y1="445" x2="502" y2="452"/>

    <!-- Balloon -->
    <ellipse cx="570" cy="475" rx="18" ry="22"/>
    <path d="M570 497 C566 504 572 510 570 515"/>

    <!-- Lightning small -->
    <polyline points="75,510 70,525 78,525 73,540"/>
    <polyline points="220,520 215,530 222,530 217,542"/>
    <polyline points="380,510 375,525 383,525 378,540"/>

    <!-- Misc -->
    <path d="M120 530 Q135 515 150 530 Q165 545 180 530"/>
    <path d="M250 540 C250 532 258 527 265 527 C272 527 280 532 280 540 C280 548 272 553 265 553 C258 553 250 548 250 540Z"/>
    <circle cx="265" cy="540" r="5" fill="#9DC4D8"/>

    <!-- Arrow -->
    <line x1="310" y1="540" x2="350" y2="540"/>
    <polyline points="340,530 350,540 340,550"/>

    <!-- Checkmark box -->
    <rect x="420" y="525" width="30" height="30" rx="5"/>
    <polyline points="428,540 436,548 447,530"/>

    <!-- Sparkle small -->
    <line x1="490" y1="535" x2="490" y2="555"/>
    <line x1="480" y1="545" x2="500" y2="545"/>
    <line x1="483" y1="538" x2="497" y2="552"/>
    <line x1="497" y1="538" x2="483" y2="552"/>

    <!-- Leaf -->
    <path d="M545 525 C545 525 560 530 565 545 C570 560 558 565 545 560 C545 560 540 555 545 525Z"/>
    <line x1="545" y1="525" x2="557" y2="555"/>

  </g>
</svg>
